<svg width="199" height="58" viewBox="0 0 199 58" xmlns="http://www.w3.org/2000/svg"
     xmlns:xlink="http://www.w3.org/1999/xlink">
    <defs>
        <path id="a" d="M0 145.61466h321.92933V0H0z"/>
    </defs>
    <g transform="matrix(1 0 0 -1 -65 102.61467)" fill="none" fill-rule="evenodd">
        <g>
            <path d="M66.15813 86.15946l.86534.992c1.95866-1.80533 3.764-2.64533 6.384-2.64533 2.67066 0 4.50266 1.50133 4.50266 3.58667 0 1.88266-.99333 2.976-5.036 3.79066-4.27466.864-6.004 2.31334-6.004 5.06134 0 2.644 2.416 4.68 5.724 4.68 2.59334 0 4.29867-.712 6.104-2.16134l-.84-1.04266c-1.67866 1.44933-3.356 2.008-5.316 2.008-2.62 0-4.34933-1.5-4.34933-3.408 0-1.88267.968-3.02667 5.18933-3.892 4.12-.83867 5.84933-2.31467 5.84933-4.96 0-2.87334-2.46666-4.85867-5.9-4.85867-2.84933 0-5.03733.94133-7.17333 2.84933"
                  fill="#191817" fill-rule="nonzero"/>
            <path d="M66.15813 86.15946l.86534.992c1.95866-1.80533 3.764-2.64533 6.384-2.64533 2.67066 0 4.50266 1.50133 4.50266 3.58667 0 1.88266-.99333 2.976-5.036 3.79066-4.27466.864-6.004 2.31334-6.004 5.06134 0 2.644 2.416 4.68 5.724 4.68 2.59334 0 4.29867-.712 6.104-2.16134l-.84-1.04266c-1.67866 1.44933-3.356 2.008-5.316 2.008-2.62 0-4.34933-1.5-4.34933-3.408 0-1.88267.968-3.02667 5.18933-3.892 4.12-.83867 5.84933-2.31467 5.84933-4.96 0-2.87334-2.46666-4.85867-5.9-4.85867-2.84933 0-5.03733.94133-7.17333 2.84933z"
                  stroke="#191817" stroke-width=".94533"/>
            <path stroke="#191817" stroke-width=".94533" fill="#191817" fill-rule="nonzero"
                  d="M104.128 101.37066h1.324V83.56533h-1.324z"/>
            <path d="M139.90533 91.17053c3.00267.40667 5.21333 2.112 5.21333 5.088 0 1.32267-.508 2.51733-1.34666 3.35733-1.068 1.068-2.824 1.75467-5.01067 1.75467h-6.15467v-1.22133h6.07734c3.23066 0 5.11333-1.5 5.11333-3.89067 0-2.62-2.21333-4.12133-5.18933-4.12133h-6.00134v-1.196h5.824l5.672-7.376h1.67867l-5.876 7.60533z"
                  fill="#191817" fill-rule="nonzero"/>
            <path d="M139.90533 91.17053c3.00267.40667 5.21333 2.112 5.21333 5.088 0 1.32267-.508 2.51733-1.34666 3.35733-1.068 1.068-2.824 1.75467-5.01067 1.75467h-6.15467v-1.22133h6.07734c3.23066 0 5.11333-1.5 5.11333-3.89067 0-2.62-2.21333-4.12133-5.18933-4.12133h-6.00134v-1.196h5.824l5.672-7.376h1.67867l-5.876 7.60533z"
                  stroke="#191817" stroke-width=".94533"/>
            <path d="M169.76213 90.96746v10.40267h1.324V91.09546c0-4.19733 2.26267-6.61466 6.02667-6.61466 3.612 0 5.92666 2.188 5.92666 6.48666v10.40267h1.32267V91.11946c0-5.112-2.976-7.83333-7.3-7.83333-4.27333 0-7.3 2.69467-7.3 7.68133"
                  fill="#191817" fill-rule="nonzero"/>
            <path d="M169.76213 90.96746v10.40267h1.324V91.09546c0-4.19733 2.26267-6.61466 6.02667-6.61466 3.612 0 5.92666 2.188 5.92666 6.48666v10.40267h1.32267V91.11946c0-5.112-2.976-7.83333-7.3-7.83333-4.27333 0-7.3 2.69467-7.3 7.68133z"
                  stroke="#191817" stroke-width=".94533"/>
            <path fill="#191817" fill-rule="nonzero"
                  d="M216.432 93.5108l7.784 7.86h-1.80534L209.744 88.40546v-4.84h1.32134v4.528l4.42666 4.476 7.32534-9.004h1.72933z"/>
            <path stroke="#191817" stroke-width=".94533"
                  d="M216.432 93.5108l7.784 7.86h-1.80534L209.744 88.40546v-4.84h1.32134v4.528l4.42666 4.476 7.32534-9.004h1.72933z"/>
            <path d="M72.20693 63.72667h-5.92667v-1.22134h5.92667c4.95867 0 8.088-3.45866 8.088-7.68133 0-4.29867-3.12933-7.68133-8.088-7.68133h-5.92667v-1.22134h5.92667c5.59467 0 9.46133 3.892 9.46133 8.90267 0 5.06133-3.86666 8.90267-9.46133 8.90267"
                  fill="#191817" fill-rule="nonzero"/>
            <path d="M72.20693 63.72667h-5.92667v-1.22134h5.92667c4.95867 0 8.088-3.45866 8.088-7.68133 0-4.29867-3.12933-7.68133-8.088-7.68133h-5.92667v-1.22134h5.92667c5.59467 0 9.46133 3.892 9.46133 8.90267 0 5.06133-3.86666 8.90267-9.46133 8.90267z"
                  stroke="#191817" stroke-width=".94533"/>
            <path stroke="#191817" stroke-width=".94533" fill="#191817" fill-rule="nonzero"
                  d="M119.33466 63.72667H106.54v-1.22134h12.79466zM119.33466 55.51067H106.54v-1.22134h12.79466zM106.54 45.92133h12.79466v1.22134H106.54z"/>
            <path d="M142.80706 48.5156l.86534.992c1.95866-1.80533 3.764-2.64533 6.384-2.64533 2.67066 0 4.50266 1.50133 4.50266 3.58666 0 1.88267-.99333 2.976-5.036 3.79067-4.27466.864-6.004 2.31333-6.004 5.06133 0 2.644 2.416 4.68 5.72267 4.68 2.59467 0 4.3-.712 6.10533-2.16133l-.84-1.04267c-1.67866 1.44934-3.356 2.008-5.316 2.008-2.62 0-4.34933-1.5-4.34933-3.408 0-1.88266.968-3.02666 5.18933-3.892 4.12-.83866 5.84934-2.31466 5.84934-4.96 0-2.87466-2.46667-4.85866-5.9-4.85866-2.84934 0-5.03734.94133-7.17334 2.84933"
                  fill="#191817" fill-rule="nonzero"/>
            <path d="M142.80706 48.5156l.86534.992c1.95866-1.80533 3.764-2.64533 6.384-2.64533 2.67066 0 4.50266 1.50133 4.50266 3.58666 0 1.88267-.99333 2.976-5.036 3.79067-4.27466.864-6.004 2.31333-6.004 5.06133 0 2.644 2.416 4.68 5.72267 4.68 2.59467 0 4.3-.712 6.10533-2.16133l-.84-1.04267c-1.67866 1.44934-3.356 2.008-5.316 2.008-2.62 0-4.34933-1.5-4.34933-3.408 0-1.88266.968-3.02666 5.18933-3.892 4.12-.83866 5.84934-2.31466 5.84934-4.96 0-2.87466-2.46667-4.85866-5.9-4.85866-2.84934 0-5.03734.94133-7.17334 2.84933z"
                  stroke="#191817" stroke-width=".94533"/>
            <path stroke="#191817" stroke-width=".94533" fill="#191817" fill-rule="nonzero"
                  d="M180.776 63.72667h1.324V45.92133h-1.324z"/>
            <path d="M207.14333 54.82413c0 4.80667 3.484 9.208 8.80133 9.208 2.89867 0 4.73067-.86533 6.51067-2.34l-.864-.992c-1.39867 1.22-3.02667 2.136-5.724 2.136-4.324 0-7.35067-3.66266-7.35067-8.012 0-4.604 2.87467-8.03733 7.63067-8.03733 2.264 0 4.37466.94133 5.67333 2.03467v5.112h-5.95333v1.22133h7.224v-6.868c-1.60267-1.424-4.09467-2.67067-6.99467-2.67067-5.62133 0-8.95333 4.14667-8.95333 9.208"
                  fill="#191817" fill-rule="nonzero"/>
            <path d="M207.14333 54.82413c0 4.80667 3.484 9.208 8.80133 9.208 2.89867 0 4.73067-.86533 6.51067-2.34l-.864-.992c-1.39867 1.22-3.02667 2.136-5.724 2.136-4.324 0-7.35067-3.66266-7.35067-8.012 0-4.604 2.87467-8.03733 7.63067-8.03733 2.264 0 4.37466.94133 5.67333 2.03467v5.112h-5.95333v1.22133h7.224v-6.868c-1.60267-1.424-4.09467-2.67067-6.99467-2.67067-5.62133 0-8.95333 4.14667-8.95333 9.208z"
                  stroke="#191817" stroke-width=".94533"/>
            <path fill="#191817" fill-rule="nonzero"
                  d="M248.242 63.72667h1.24666L261.774 48.236v15.49067h1.272V45.92133h-.992l-12.54 15.82134V45.92133h-1.272z"/>
            <path stroke="#191817" stroke-width=".94533"
                  d="M248.242 63.72667h1.24666L261.774 48.236v15.49067h1.272V45.92133h-.992l-12.54 15.82134V45.92133h-1.272z"/>
        </g>
    </g>
</svg>