<svg width="168" height="47" xmlns="http://www.w3.org/2000/svg"><g id="Page-1" stroke="none" stroke-width="1" fill="none" fill-rule="evenodd"><g id="main-logo"><g id="Group" transform="matrix(1 0 0 -1 .331199 46.296448)"><path d="M.695688 32.962245l.729875.800922c1.652062-1.457592 3.174792-2.135792 5.384663-2.135792 2.252606 0 3.797828 1.212148 3.797828 2.895807 0 1.52003-.837839 2.402766-4.247675 3.060512-3.60552.697578-5.064146 1.867742-5.064146 4.086425 0 2.134715 2.037804 3.778543 4.827977 3.778543 2.187378 0 3.625762-.574855 5.148492-1.74502l-.708508-.841829c-1.415891 1.170164-2.830659 1.621221-4.483844 1.621221-2.209871 0-3.668498-1.211071-3.668498-2.751554 0-1.52003.816471-2.443673 4.377006-3.142327 3.475064-.677124 4.933691-1.868818 4.933691-4.00461 0-2.319875-2.08054-3.922795-4.976427-3.922795-2.403304 0-4.2488.760014-6.050434 2.300497" id="Path" fill="#191817" fill-rule="nonzero"/><path d="M.695688 32.962245l.729875.800922c1.652062-1.457592 3.174792-2.135792 5.384663-2.135792 2.252606 0 3.797828 1.212148 3.797828 2.895807 0 1.52003-.837839 2.402766-4.247675 3.060512-3.60552.697578-5.064146 1.867742-5.064146 4.086425 0 2.134715 2.037804 3.778543 4.827977 3.778543 2.187378 0 3.625762-.574855 5.148492-1.74502l-.708508-.841829c-1.415891 1.170164-2.830659 1.621221-4.483844 1.621221-2.209871 0-3.668498-1.211071-3.668498-2.751554 0-1.52003.816471-2.443673 4.377006-3.142327 3.475064-.677124 4.933691-1.868818 4.933691-4.00461 0-2.319875-2.08054-3.922795-4.976427-3.922795-2.403304 0-4.2488.760014-6.050434 2.300497h0z" id="Path" stroke="#191817" stroke-width=".945331"/><path id="Path" stroke="#191817" stroke-width=".945331" fill="#191817" fill-rule="nonzero" d="M32.721832 45.24348h1.116744V30.86779h-1.116744z"/><path d="M62.898657 37.008085c2.532636.328335 4.39725 1.70519 4.39725 4.107955 0 1.067896-.42848 2.032447-1.135863 2.710647-.900818.862283-2.381937 1.416685-4.226307 1.416685h-5.191229v-.986081h5.126c2.724946 0 4.312904-1.211072 4.312904-3.141251 0-2.115338-1.866863-3.327486-4.377006-3.327486h-5.061898v-.965628h4.912324l4.784117-5.955242h1.415892l-4.956184 6.140401z" id="Path" fill="#191817" fill-rule="nonzero"/><path d="M62.898657 37.008085c2.532636.328335 4.39725 1.70519 4.39725 4.107955 0 1.067896-.42848 2.032447-1.135863 2.710647-.900818.862283-2.381937 1.416685-4.226307 1.416685h-5.191229v-.986081h5.126c2.724946 0 4.312904-1.211072 4.312904-3.141251 0-2.115338-1.866863-3.327486-4.377006-3.327486h-5.061898v-.965628h4.912324l4.784117-5.955242h1.415892l-4.956184 6.140401z" id="Path" stroke="#191817" stroke-width=".945331"/><path d="M88.081737 36.844133v8.398916h1.116744v-8.295571c0-3.388847 1.908473-5.340556 5.083265-5.340556 3.046585 0 4.998919 1.76655 4.998919 5.237211v8.398916h1.115619v-8.276194c0-4.127332-2.510143-6.324485-6.157274-6.324485-3.604394 0-6.157273 2.175623-6.157273 6.201763" id="Path" fill="#191817" fill-rule="nonzero"/><path d="M88.081737 36.844133v8.398916h1.116744v-8.295571c0-3.388847 1.908473-5.340556 5.083265-5.340556 3.046585 0 4.998919 1.76655 4.998919 5.237211v8.398916h1.115619v-8.276194c0-4.127332-2.510143-6.324485-6.157274-6.324485-3.604394 0-6.157273 2.175623-6.157273 6.201763h0z" id="Path" stroke="#191817" stroke-width=".945331"/><path id="Path" fill="#191817" fill-rule="nonzero" d="M127.446002 38.897572l6.565509 6.346015h-1.522731l-10.683853-10.467964V30.8679h1.114495v3.655821l3.733725 3.613838 6.178641-7.26966h1.458628z"/><path id="Path" stroke="#191817" stroke-width=".945331" d="M127.446002 38.897572l6.565509 6.346015h-1.522731l-10.683853-10.467964V30.8679h1.114495v3.655821l3.733725 3.613838 6.178641-7.26966h1.458628z"/><path d="M5.797621 14.850428H.798702v-.986081h4.99892c4.182447 0 6.82192-2.792462 6.82192-6.201763 0-3.470662-2.639473-6.201763-6.82192-6.201763H.798701V.47474h4.99892c4.718889 0 7.980276 3.142327 7.980276 7.187844 0 4.086425-3.261387 7.187844-7.980277 7.187844" id="Path" fill="#191817" fill-rule="nonzero"/><path d="M5.797621 14.850428H.798702v-.986081h4.99892c4.182447 0 6.82192-2.792462 6.82192-6.201763 0-3.470662-2.639473-6.201763-6.82192-6.201763H.798701V.47474h4.99892c4.718889 0 7.980276 3.142327 7.980276 7.187844 0 4.086425-3.261387 7.187844-7.980277 7.187844h0z" id="Path" stroke="#191817" stroke-width=".945331"/><path d="M45.54808 14.850428H34.756261v-.986081H45.54808v.986081zm0-6.633442H34.756261v-.986082H45.54808v.986082zM34.756261.47474H45.54808v.986081H34.756262V.47474z" id="Shape" stroke="#191817" stroke-width=".945331" fill="#191817" fill-rule="nonzero"/><path d="M65.34616 2.569302l.729875.800922c1.652061-1.457592 3.174792-2.135792 5.384662-2.135792 2.252606 0 3.79783 1.212148 3.79783 2.895806 0 1.52003-.83784 2.402766-4.247676 3.060513-3.60552.697577-5.064147 1.867741-5.064147 4.086424 0 2.134716 2.037805 3.778543 4.826853 3.778543 2.188503 0 3.626887-.574855 5.149617-1.74502l-.708508-.841828c-1.415892 1.170164-2.830659 1.62122-4.483844 1.62122-2.209871 0-3.668498-1.21107-3.668498-2.751554 0-1.52003.81647-2.443673 4.377006-3.142327 3.475064-.677123 4.93369-1.868818 4.93369-4.00461 0-2.320951-2.08054-3.922795-4.976426-3.922795-2.403304 0-4.2488.760015-6.050435 2.300498" id="Path" fill="#191817" fill-rule="nonzero"/><path d="M65.34616 2.569302l.729875.800922c1.652061-1.457592 3.174792-2.135792 5.384662-2.135792 2.252606 0 3.79783 1.212148 3.79783 2.895806 0 1.52003-.83784 2.402766-4.247676 3.060513-3.60552.697577-5.064147 1.867741-5.064147 4.086424 0 2.134716 2.037805 3.778543 4.826853 3.778543 2.188503 0 3.626887-.574855 5.149617-1.74502l-.708508-.841828c-1.415892 1.170164-2.830659 1.62122-4.483844 1.62122-2.209871 0-3.668498-1.21107-3.668498-2.751554 0-1.52003.81647-2.443673 4.377006-3.142327 3.475064-.677123 4.93369-1.868818 4.93369-4.00461 0-2.320951-2.08054-3.922795-4.976426-3.922795-2.403304 0-4.2488.760015-6.050435 2.300498z" id="Path" stroke="#191817" stroke-width=".945331"/><path id="Path" stroke="#191817" stroke-width=".945331" fill="#191817" fill-rule="nonzero" d="M97.371516 14.850428h1.116744V.47474h-1.116744z"/><path d="M119.611363 7.662692c0 3.880811 2.938622 7.434364 7.423591 7.434364 2.444916 0 3.990139-.698653 5.491501-1.889271l-.728751-.800922c-1.179722.985005-2.552879 1.724566-4.827977 1.724566-3.647131 0-6.200009-2.957168-6.200009-6.468737 0-3.717182 2.424672-6.48919 6.436178-6.48919 1.909598 0 3.689866.760014 4.785242 1.64275v4.127332h-5.021411v.986082h6.09317V2.384573c-1.351789-1.14971-3.453696-2.156246-5.899736-2.156246-4.741382 0-7.551798 3.34794-7.551798 7.434365" id="Path" fill="#191817" fill-rule="nonzero"/><path d="M119.611363 7.662692c0 3.880811 2.938622 7.434364 7.423591 7.434364 2.444916 0 3.990139-.698653 5.491501-1.889271l-.728751-.800922c-1.179722.985005-2.552879 1.724566-4.827977 1.724566-3.647131 0-6.200009-2.957168-6.200009-6.468737 0-3.717182 2.424672-6.48919 6.436178-6.48919 1.909598 0 3.689866.760014 4.785242 1.64275v4.127332h-5.021411v.986082h6.09317V2.384573c-1.351789-1.14971-3.453696-2.156246-5.899736-2.156246-4.741382 0-7.551798 3.34794-7.551798 7.434365h0z" id="Path" stroke="#191817" stroke-width=".945331"/><path id="Path" fill="#191817" fill-rule="nonzero" d="M154.276532 14.850428h1.051516l10.362213-12.50687v12.50687h1.072884V.47474h-.836715l-10.577015 12.773844V.47474h-1.072883z"/><path id="Path" stroke="#191817" stroke-width=".945331" d="M154.276532 14.850428h1.051516l10.362213-12.50687v12.50687h1.072884V.47474h-.836715l-10.577015 12.773844V.47474h-1.072883z"/></g></g></g></svg>